<svg width="1600" height="420" viewBox="0 0 1600 420" fill="none" xmlns="http://www.w3.org/2000/svg">
  <defs>
    <linearGradient id="bg" x1="0" y1="0" x2="1600" y2="420" gradientUnits="userSpaceOnUse">
      <stop stop-color="#081626"/>
      <stop offset="1" stop-color="#0C2B46"/>
    </linearGradient>
    <linearGradient id="accent" x1="160" y1="72" x2="940" y2="350" gradientUnits="userSpaceOnUse">
      <stop stop-color="#2DD4BF"/>
      <stop offset="1" stop-color="#60A5FA"/>
    </linearGradient>
    <linearGradient id="panel" x1="0" y1="0" x2="1" y2="1">
      <stop stop-color="#11314C" stop-opacity="0.92"/>
      <stop offset="1" stop-color="#0B2032" stop-opacity="0.92"/>
    </linearGradient>
    <filter id="shadow" x="-20%" y="-20%" width="140%" height="140%">
      <feDropShadow dx="0" dy="10" stdDeviation="18" flood-color="#02111E" flood-opacity="0.45"/>
    </filter>
  </defs>

  <rect width="1600" height="420" rx="30" fill="url(#bg)"/>
  <circle cx="1340" cy="80" r="180" fill="#1D4ED8" opacity="0.12"/>
  <circle cx="1500" cy="300" r="200" fill="#14B8A6" opacity="0.08"/>
  <path d="M0 316C164 250 264 222 423 240C574 257 661 315 808 326C998 340 1130 205 1324 200C1428 197 1514 228 1600 274V420H0V316Z" fill="#091A2A" opacity="0.55"/>

  <g filter="url(#shadow)">
    <rect x="58" y="58" width="858" height="304" rx="24" fill="url(#panel)" stroke="#244B68" stroke-width="1.2"/>
    <text x="108" y="128" fill="#9BD9FF" font-family="Segoe UI, Arial, sans-serif" font-size="18" font-weight="700" letter-spacing="3.2">AZURE VM MANAGER</text>
    <text x="108" y="188" fill="white" font-family="Segoe UI, Arial, sans-serif" font-size="56" font-weight="800">Secure Desktop VM Orchestration</text>
    <text x="108" y="234" fill="#C7D9E8" font-family="Segoe UI, Arial, sans-serif" font-size="24" font-weight="500">Lifecycle Control • Encrypted Configs • Local + Azure Scheduling</text>
    <text x="108" y="288" fill="#8FB4CD" font-family="Segoe UI, Arial, sans-serif" font-size="20">Operator-first tooling for Azure VM management, exports, JSON editing,</text>
    <text x="108" y="318" fill="#8FB4CD" font-family="Segoe UI, Arial, sans-serif" font-size="20">and schedule-driven automation without living in the Azure portal.</text>

    <rect x="108" y="338" width="200" height="14" rx="7" fill="#113E63"/>
    <rect x="108" y="338" width="146" height="14" rx="7" fill="url(#accent)"/>
  </g>

  <g transform="translate(1030 78)">
    <rect x="0" y="0" width="470" height="264" rx="24" fill="#0A1C2D" stroke="#244B68" stroke-width="1.2"/>
    <rect x="28" y="28" width="414" height="46" rx="12" fill="#102A40"/>
    <circle cx="52" cy="51" r="8" fill="#18A558"/>
    <text x="72" y="57" fill="#E6F1FA" font-family="Segoe UI, Arial, sans-serif" font-size="18" font-weight="700">Azure VM Manager</text>

    <rect x="28" y="92" width="190" height="132" rx="16" fill="#0F2740"/>
    <text x="48" y="122" fill="#9BD9FF" font-family="Segoe UI, Arial, sans-serif" font-size="16" font-weight="700">VMs</text>
    <circle cx="56" cy="150" r="8" fill="#18A558"/><text x="74" y="156" fill="#E6F1FA" font-family="Segoe UI, Arial, sans-serif" font-size="14">Running</text>
    <circle cx="56" cy="178" r="8" fill="#F9AB00"/><text x="74" y="184" fill="#E6F1FA" font-family="Segoe UI, Arial, sans-serif" font-size="14">Transition</text>
    <circle cx="56" cy="206" r="8" fill="#D93025"/><text x="74" y="212" fill="#E6F1FA" font-family="Segoe UI, Arial, sans-serif" font-size="14">Stopped</text>

    <rect x="236" y="92" width="206" height="132" rx="16" fill="#0F2740"/>
    <text x="256" y="122" fill="#9BD9FF" font-family="Segoe UI, Arial, sans-serif" font-size="16" font-weight="700">Automation</text>
    <rect x="256" y="142" width="154" height="24" rx="8" fill="#113E63"/>
    <text x="272" y="159" fill="#E6F1FA" font-family="Segoe UI, Arial, sans-serif" font-size="13">Encrypted configs</text>
    <rect x="256" y="174" width="154" height="24" rx="8" fill="#113E63"/>
    <text x="272" y="191" fill="#E6F1FA" font-family="Segoe UI, Arial, sans-serif" font-size="13">Local scheduler</text>
    <rect x="256" y="206" width="154" height="24" rx="8" fill="#113E63"/>
    <text x="272" y="223" fill="#E6F1FA" font-family="Segoe UI, Arial, sans-serif" font-size="13">Azure schedule deploy</text>
  </g>
</svg>